<?xml version="1.0" encoding="UTF-8" standalone="no"?>
<!-- Created with Inkscape (http://www.inkscape.org/) -->

<svg
   xmlns:dc="http://purl.org/dc/elements/1.1/"
   xmlns:cc="http://creativecommons.org/ns#"
   xmlns:rdf="http://www.w3.org/1999/02/22-rdf-syntax-ns#"
   xmlns:svg="http://www.w3.org/2000/svg"
   xmlns="http://www.w3.org/2000/svg"
   xmlns:xlink="http://www.w3.org/1999/xlink"
   xmlns:sodipodi="http://sodipodi.sourceforge.net/DTD/sodipodi-0.dtd"
   xmlns:inkscape="http://www.inkscape.org/namespaces/inkscape"
   width="48"
   height="48"
   id="svg2"
   sodipodi:version="0.32"
   inkscape:version="0.48.2 r9819"
   version="1.0"
   sodipodi:docname="wifi.svg"
   inkscape:output_extension="org.inkscape.output.svg.inkscape"
   inkscape:export-filename="C:\Documents and Settings\William\My Documents\Workspace\DroidPad\wifi.png"
   inkscape:export-xdpi="90"
   inkscape:export-ydpi="90">
  <defs
     id="defs4">
    <linearGradient
       id="linearGradient3814">
      <stop
         style="stop-color:#8c8c8c;stop-opacity:1;"
         offset="0"
         id="stop3816" />
      <stop
         style="stop-color:#b2b2b2;stop-opacity:1;"
         offset="1"
         id="stop3818" />
    </linearGradient>
    <linearGradient
       id="linearGradient3260">
      <stop
         style="stop-color:#666b66;stop-opacity:1;"
         offset="0"
         id="stop3262" />
      <stop
         style="stop-color:#b2adb2;stop-opacity:1;"
         offset="1"
         id="stop3264" />
    </linearGradient>
    <inkscape:perspective
       sodipodi:type="inkscape:persp3d"
       inkscape:vp_x="0 : 526.18109 : 1"
       inkscape:vp_y="0 : 1000 : 0"
       inkscape:vp_z="744.09448 : 526.18109 : 1"
       inkscape:persp3d-origin="372.04724 : 350.78739 : 1"
       id="perspective10" />
    <inkscape:perspective
       id="perspective2410"
       inkscape:persp3d-origin="372.04724 : 350.78739 : 1"
       inkscape:vp_z="744.09448 : 526.18109 : 1"
       inkscape:vp_y="0 : 1000 : 0"
       inkscape:vp_x="0 : 526.18109 : 1"
       sodipodi:type="inkscape:persp3d" />
    <linearGradient
       inkscape:collect="always"
       xlink:href="#linearGradient3260"
       id="linearGradient3266"
       x1="-7.9865184"
       y1="13.192818"
       x2="-7.9865184"
       y2="30.444159"
       gradientUnits="userSpaceOnUse" />
    <linearGradient
       inkscape:collect="always"
       xlink:href="#linearGradient3260"
       id="linearGradient3268"
       x1="18"
       y1="0.96875"
       x2="18"
       y2="35.331219"
       gradientUnits="userSpaceOnUse" />
    <linearGradient
       inkscape:collect="always"
       xlink:href="#linearGradient3260"
       id="linearGradient3270"
       x1="18"
       y1="0.96875"
       x2="18"
       y2="35.331219"
       gradientUnits="userSpaceOnUse" />
    <linearGradient
       inkscape:collect="always"
       xlink:href="#linearGradient3260"
       id="linearGradient3272"
       x1="18"
       y1="0.96875"
       x2="18"
       y2="35.331219"
       gradientUnits="userSpaceOnUse" />
    <linearGradient
       inkscape:collect="always"
       xlink:href="#linearGradient3260"
       id="linearGradient3519"
       x1="18"
       y1="0.96875"
       x2="18"
       y2="35.331219"
       gradientUnits="userSpaceOnUse" />
    <linearGradient
       inkscape:collect="always"
       xlink:href="#linearGradient3260"
       id="linearGradient3615"
       gradientUnits="userSpaceOnUse"
       x1="18"
       y1="0.96875"
       x2="18"
       y2="35.331219" />
    <linearGradient
       inkscape:collect="always"
       xlink:href="#linearGradient3260"
       id="linearGradient3653"
       gradientUnits="userSpaceOnUse"
       x1="18"
       y1="35.331219"
       x2="18"
       y2="0.96874911" />
    <linearGradient
       inkscape:collect="always"
       xlink:href="#linearGradient3260"
       id="linearGradient3656"
       gradientUnits="userSpaceOnUse"
       x1="18"
       y1="35.331219"
       x2="18"
       y2="0.96874911" />
    <linearGradient
       inkscape:collect="always"
       xlink:href="#linearGradient3260"
       id="linearGradient3659"
       gradientUnits="userSpaceOnUse"
       x1="18"
       y1="35.331219"
       x2="18"
       y2="0.96874911" />
    <linearGradient
       inkscape:collect="always"
       xlink:href="#linearGradient3260"
       id="linearGradient3661"
       gradientUnits="userSpaceOnUse"
       x1="-7.9865184"
       y1="30.44416"
       x2="-7.9865184"
       y2="13.192818" />
    <linearGradient
       inkscape:collect="always"
       xlink:href="#linearGradient3260"
       id="linearGradient3679"
       gradientUnits="userSpaceOnUse"
       x1="18"
       y1="35.331219"
       x2="18"
       y2="0.96874911" />
    <linearGradient
       inkscape:collect="always"
       xlink:href="#linearGradient3260"
       id="linearGradient3681"
       gradientUnits="userSpaceOnUse"
       x1="18"
       y1="35.331219"
       x2="18"
       y2="0.96874911" />
    <linearGradient
       inkscape:collect="always"
       xlink:href="#linearGradient3260"
       id="linearGradient3683"
       gradientUnits="userSpaceOnUse"
       x1="18"
       y1="35.331219"
       x2="18"
       y2="0.96874911" />
    <linearGradient
       inkscape:collect="always"
       xlink:href="#linearGradient3260"
       id="linearGradient3685"
       gradientUnits="userSpaceOnUse"
       x1="-7.9865184"
       y1="30.44416"
       x2="-7.9865184"
       y2="13.192818" />
    <linearGradient
       inkscape:collect="always"
       xlink:href="#linearGradient3260"
       id="linearGradient3689"
       gradientUnits="userSpaceOnUse"
       x1="18"
       y1="35.331219"
       x2="18"
       y2="0.96874911"
       gradientTransform="translate(-13.328045,-81.776286)" />
    <linearGradient
       inkscape:collect="always"
       xlink:href="#linearGradient3260"
       id="linearGradient3692"
       gradientUnits="userSpaceOnUse"
       x1="18"
       y1="35.331219"
       x2="18"
       y2="0.96874911"
       gradientTransform="translate(-13.328045,-81.776286)" />
    <linearGradient
       inkscape:collect="always"
       xlink:href="#linearGradient3260"
       id="linearGradient3695"
       gradientUnits="userSpaceOnUse"
       x1="18"
       y1="35.331219"
       x2="18"
       y2="0.96874911"
       gradientTransform="translate(-13.328045,-81.776286)" />
    <linearGradient
       inkscape:collect="always"
       xlink:href="#linearGradient3260"
       id="linearGradient4003"
       gradientUnits="userSpaceOnUse"
       gradientTransform="translate(19.50975,161.62475)"
       x1="4.671875"
       y1="-46.452408"
       x2="4.671875"
       y2="-80.923859" />
    <filter
       inkscape:collect="always"
       id="filter4477"
       color-interpolation-filters="sRGB">
      <feGaussianBlur
         inkscape:collect="always"
         stdDeviation="1.3574219"
         id="feGaussianBlur4479" />
    </filter>
    <linearGradient
       inkscape:collect="always"
       xlink:href="#linearGradient3260"
       id="linearGradient4481"
       gradientUnits="userSpaceOnUse"
       x1="18"
       y1="35.331219"
       x2="18"
       y2="0.96874911" />
    <linearGradient
       inkscape:collect="always"
       xlink:href="#linearGradient3260"
       id="linearGradient4483"
       gradientUnits="userSpaceOnUse"
       x1="18"
       y1="35.331219"
       x2="18"
       y2="0.96874911" />
    <linearGradient
       inkscape:collect="always"
       xlink:href="#linearGradient3260"
       id="linearGradient4485"
       gradientUnits="userSpaceOnUse"
       x1="18"
       y1="35.331219"
       x2="18"
       y2="0.96874911" />
    <linearGradient
       inkscape:collect="always"
       xlink:href="#linearGradient3260"
       id="linearGradient4487"
       gradientUnits="userSpaceOnUse"
       x1="-7.9865184"
       y1="30.44416"
       x2="-7.9865184"
       y2="13.192818" />
    <linearGradient
       inkscape:collect="always"
       xlink:href="#linearGradient3814"
       id="linearGradient3820"
       x1="22.59724"
       y1="33.631203"
       x2="22.59724"
       y2="-0.74379671"
       gradientUnits="userSpaceOnUse" />
    <filter
       inkscape:collect="always"
       id="filter3844">
      <feGaussianBlur
         inkscape:collect="always"
         stdDeviation="0.53296875"
         id="feGaussianBlur3846" />
    </filter>
    <clipPath
       clipPathUnits="userSpaceOnUse"
       id="clipPath3927">
      <path
         style="fill:#add3e3;fill-opacity:1;stroke:none"
         d="m 22.597241,-0.7437969 c -5.237061,-3e-6 -10.47545,1.37007203 -15.3749998,4.0625 l 2.625,4.3125 c 8.1217698,-4.46313 17.3782268,-4.463127 25.4999998,0 l 2.625,-4.3125 c -4.899546,-2.69243197 -10.137941,-4.0625 -15.375,-4.0625 z m 0,8.78125 c -3.673438,-3e-6 -7.34455,0.955196 -10.78125,2.8437499 l 2.3125,3.78125 c 5.404053,-2.969671 11.533448,-2.969668 16.9375,0 l 2.3125,-3.78125 C 29.941796,8.9926461 26.270679,8.0374531 22.597241,8.0374531 z m 0.09375,7.9062499 c -0.31754,-0.0026 -0.619775,0.01081 -0.9375,0.03125 -1.976952,0.127172 -3.92984,0.701353 -5.78125,1.71875 l 2.25,3.71875 c 2.796821,-1.536925 5.95318,-1.536926 8.75,0 l 2.25,-3.71875 c -2.082833,-1.144571 -4.308471,-1.73175 -6.53125,-1.75 z m -0.09375,7.75 c -2.880817,0 -5.25,2.226766 -5.25,4.96875 0,2.741982 2.369184,4.96875 5.25,4.96875 2.880817,0 5.21875,-2.22677 5.21875,-4.96875 0,-2.741982 -2.337933,-4.968749 -5.21875,-4.96875 z"
         id="path3929"
         inkscape:connector-curvature="0" />
    </clipPath>
  </defs>
  <sodipodi:namedview
     id="base"
     pagecolor="#ffffff"
     bordercolor="#666666"
     borderopacity="1.0"
     gridtolerance="10000"
     guidetolerance="10"
     objecttolerance="10"
     inkscape:pageopacity="0.0"
     inkscape:pageshadow="2"
     inkscape:zoom="3.959798"
     inkscape:cx="-0.29576736"
     inkscape:cy="11.405366"
     inkscape:document-units="px"
     inkscape:current-layer="layer1"
     showgrid="false"
     inkscape:window-width="1020"
     inkscape:window-height="577"
     inkscape:window-x="0"
     inkscape:window-y="19"
     inkscape:snap-global="true"
     inkscape:snap-bbox="true"
     inkscape:bbox-paths="true"
     inkscape:bbox-nodes="true"
     inkscape:snap-bbox-edge-midpoints="true"
     inkscape:snap-bbox-midpoints="true"
     inkscape:window-maximized="0" />
  <metadata
     id="metadata7">
    <rdf:RDF>
      <cc:Work
         rdf:about="">
        <dc:format>image/svg+xml</dc:format>
        <dc:type
           rdf:resource="http://purl.org/dc/dcmitype/StillImage" />
      </cc:Work>
    </rdf:RDF>
  </metadata>
  <g
     inkscape:label="Layer 1"
     inkscape:groupmode="layer"
     id="layer1"
     transform="translate(0,12)">
    <path
       sodipodi:type="arc"
       style="opacity:0.25789478;fill:#000000;fill-opacity:1;fill-rule:nonzero;stroke:none"
       id="path3194"
       sodipodi:cx="-7.9865184"
       sodipodi:cy="27.950346"
       sodipodi:rx="2.6200831"
       sodipodi:ry="2.493814"
       d="m -5.3664353,27.950346 c 0,1.377295 -1.1730511,2.493814 -2.6200831,2.493814 -1.4470319,0 -2.6200826,-1.116519 -2.6200826,-2.493814 0,-1.377295 1.1730507,-2.493814 2.6200826,-2.493814 1.447032,0 2.6200831,1.116519 2.6200831,2.493814 z"
       transform="matrix(5.8915664,0,0,5.8915664,9.267085,-94.420833)" />
    <path
       sodipodi:type="arc"
       style="opacity:0.33684214;fill:#000000;fill-opacity:1;fill-rule:nonzero;stroke:none"
       id="path3200"
       sodipodi:cx="-7.9865184"
       sodipodi:cy="27.950346"
       sodipodi:rx="2.6200831"
       sodipodi:ry="2.493814"
       d="m -5.3664353,27.950346 c 0,1.377295 -1.1730511,2.493814 -2.6200831,2.493814 -1.4470319,0 -2.6200826,-1.116519 -2.6200826,-2.493814 0,-1.377295 1.1730507,-2.493814 2.6200826,-2.493814 1.447032,0 2.6200831,1.116519 2.6200831,2.493814 z"
       transform="matrix(4.1325302,0,0,4.1325302,-4.78149,-45.255165)" />
    <path
       sodipodi:type="arc"
       style="opacity:0.30526315;fill:#000000;fill-opacity:1;fill-rule:nonzero;stroke:none"
       id="path3202"
       sodipodi:cx="-7.9865184"
       sodipodi:cy="27.950346"
       sodipodi:rx="2.6200831"
       sodipodi:ry="2.493814"
       d="m -5.3664353,27.950346 c 0,1.377295 -1.1730511,2.493814 -2.6200831,2.493814 -1.4470319,0 -2.6200826,-1.116519 -2.6200826,-2.493814 0,-1.377295 1.1730507,-2.493814 2.6200826,-2.493814 1.447032,0 2.6200831,1.116519 2.6200831,2.493814 z"
       transform="matrix(2.5443039,0,0,2.5443039,-17.465889,-0.8636888)" />
    <path
       sodipodi:type="arc"
       style="fill:#000000;fill-opacity:1;fill-rule:nonzero;stroke:none"
       id="path3204"
       sodipodi:cx="-7.9865184"
       sodipodi:cy="27.950346"
       sodipodi:rx="2.6200831"
       sodipodi:ry="2.493814"
       d="m -5.3664353,27.950346 c 0,1.377295 -1.1730511,2.493814 -2.6200831,2.493814 -1.4470319,0 -2.6200826,-1.116519 -2.6200826,-2.493814 0,-1.377295 1.1730507,-2.493814 2.6200826,-2.493814 1.447032,0 2.6200831,1.116519 2.6200831,2.493814 z"
       transform="translate(-29.7995,42.300138)" />
    <g
       id="g3663"
       transform="translate(5.6821078,79.549514)"
       inkscape:export-filename="C:\Documents and Settings\William\My Documents\Workspace\DroidPad\wifiblur.png"
       inkscape:export-xdpi="1721.1353"
       inkscape:export-ydpi="1721.1353">
      <path
         id="path3206"
         d="m 18,0.96875 c -5.237059,-1.2e-7 -10.4754543,1.3700716 -15.375,4.0625 l 2.625,4.3125 c 8.121773,-4.4631269 17.378227,-4.4631268 25.5,0 l 2.625,-4.3125 C 28.475454,2.3388213 23.237059,0.96875012 18,0.96875 z"
         style="fill:url(#linearGradient4481);fill-opacity:1;fill-rule:nonzero;stroke:none"
         inkscape:connector-curvature="0" />
      <path
         id="path3208"
         d="m 18,9.75 c -3.673438,0 -7.344555,0.955196 -10.78125,2.84375 l 2.3125,3.78125 c 5.404052,-2.969668 11.533448,-2.969668 16.9375,0 l 2.3125,-3.78125 C 25.344555,10.705196 21.673438,9.75 18,9.75 z"
         style="fill:url(#linearGradient4483);fill-opacity:1;fill-rule:nonzero;stroke:none"
         inkscape:connector-curvature="0" />
      <path
         id="path3210"
         d="m 17.15625,17.6875 c -1.976952,0.127175 -3.929842,0.701353 -5.78125,1.71875 l 2.25,3.71875 c 2.79682,-1.536926 5.95318,-1.536926 8.75,0 l 2.25,-3.71875 C 22.244619,18.098168 19.698045,17.52399 17.15625,17.6875 z"
         style="fill:url(#linearGradient4485);fill-opacity:1;fill-rule:nonzero;stroke:none"
         inkscape:connector-curvature="0" />
      <path
         transform="matrix(1.9918723,0,0,1.9918723,33.908125,-25.309659)"
         d="m -5.3664353,27.950346 c 0,1.377295 -1.1730511,2.493814 -2.6200831,2.493814 -1.4470319,0 -2.6200826,-1.116519 -2.6200826,-2.493814 0,-1.377295 1.1730507,-2.493814 2.6200826,-2.493814 1.447032,0 2.6200831,1.116519 2.6200831,2.493814 z"
         sodipodi:ry="2.493814"
         sodipodi:rx="2.6200831"
         sodipodi:cy="27.950346"
         sodipodi:cx="-7.9865184"
         id="path3212"
         style="fill:url(#linearGradient4487);fill-opacity:1;fill-rule:nonzero;stroke:none"
         sodipodi:type="arc" />
    </g>
    <path
       id="path4001"
       d="m -2.084,70.968503 0,54.062497 52.53125,0 0,-54.062497 -52.53125,0 z m 26.28125,9.84375 c 5.237059,0 10.475454,1.370068 15.375,4.0625 l -2.625,4.3125 c -8.121773,-4.463127 -17.378227,-4.46313 -25.499999,0 l -2.6250002,-4.3125 C 13.721796,82.182325 18.960191,80.81225 24.19725,80.812253 z m 0,8.78125 c 3.673438,0 7.344555,0.955193 10.78125,2.84375 l -2.3125,3.78125 c -5.404052,-2.969668 -11.533448,-2.969671 -16.9375,0 l -2.312499,-3.78125 c 3.436694,-1.888554 7.107811,-2.843753 10.781249,-2.84375 z m 0.09375,7.90625 c 2.222779,0.01825 4.448417,0.605429 6.53125,1.75 l -2.25,3.718747 c -2.79682,-1.53693 -5.95318,-1.53693 -8.75,0 l -2.25,-3.718747 c 1.851408,-1.017397 3.804298,-1.591578 5.78125,-1.71875 0.317725,-0.02044 0.619961,-0.03386 0.9375,-0.03125 z m -0.09375,7.749997 c 2.880817,0 5.21875,2.22677 5.21875,4.96875 0,2.74198 -2.337933,4.96875 -5.21875,4.96875 -2.880816,0 -5.25,-2.22677 -5.25,-4.96875 0,-2.74198 2.369184,-4.96875 5.25,-4.96875 z"
       style="fill:#000000;fill-opacity:1;fill-rule:nonzero;stroke:url(#linearGradient4003);stroke-width:1;stroke-miterlimit:4;stroke-opacity:1;stroke-dasharray:none;filter:url(#filter4477)"
       inkscape:export-filename="C:\Documents and Settings\William\My Documents\Workspace\DroidPad\wifiblur.png"
       inkscape:export-xdpi="1721.1353"
       inkscape:export-ydpi="1721.1353"
       inkscape:connector-curvature="0" />
    <path
       style="fill:#000000;fill-opacity:1;fill-rule:nonzero;stroke:none"
       d="m -121.97758,-92.046504 0,54.0625 52.531251,0 0,-54.0625 -52.531251,0 z m 26.281251,9.84375 c 5.237059,0 10.475454,1.370068 15.375,4.0625 l -2.625,4.3125 c -8.121773,-4.463127 -17.378231,-4.46313 -25.500001,0 l -2.625,-4.3125 c 4.89955,-2.692428 10.13794,-4.062503 15.375001,-4.0625 z m 0,8.78125 c 3.673438,0 7.344555,0.955193 10.78125,2.84375 l -2.3125,3.78125 c -5.404052,-2.969668 -11.533448,-2.969671 -16.937501,0 l -2.3125,-3.78125 c 3.4367,-1.888554 7.107813,-2.843753 10.781251,-2.84375 z m 0.09375,7.90625 c 2.222779,0.01825 4.448417,0.605429 6.53125,1.75 l -2.25,3.71875 c -2.79682,-1.536926 -5.95318,-1.536925 -8.750001,0 l -2.25,-3.71875 c 1.85141,-1.017397 3.804299,-1.591578 5.781251,-1.71875 0.317725,-0.02044 0.61996,-0.03386 0.9375,-0.03125 z m -0.09375,7.75 c 2.880817,10e-7 5.21875,2.226768 5.21875,4.96875 0,2.74198 -2.337933,4.96875 -5.21875,4.96875 -2.880816,0 -5.250001,-2.226768 -5.250001,-4.96875 0,-2.741984 2.369184,-4.96875 5.250001,-4.96875 z"
       id="rect3493-3"
       inkscape:export-filename="C:\Documents and Settings\William\My Documents\Workspace\DroidPad\wifimask.png"
       inkscape:export-xdpi="1721.1351"
       inkscape:export-ydpi="1721.1351"
       inkscape:connector-curvature="0" />
    <g
       id="g3879"
       clip-path="url(#clipPath3927)"
       transform="matrix(0.95072427,0,0,0.95072427,2.5162545,-3.6334276)">
      <path
         inkscape:connector-curvature="0"
         id="rect3024"
         d="m 22.597241,-0.7437967 c -5.237059,-3e-6 -10.475454,1.370072 -15.3749995,4.0625 l 2.625,4.3125002 c 8.1217725,-4.4631302 17.3782265,-4.4631272 25.4999995,0 l 2.625,-4.3125002 c -4.899546,-2.692432 -10.137941,-4.0625 -15.375,-4.0625 z m 0,8.7812502 c -3.673438,-3e-6 -7.344555,0.955196 -10.78125,2.8437505 l 2.3125,3.78125 c 5.404052,-2.969671 11.533448,-2.969668 16.9375,0 l 2.3125,-3.78125 C 29.941796,8.9926465 26.270679,8.0374535 22.597241,8.0374535 z m 0.09375,7.9062505 c -0.31754,-0.0026 -0.619775,0.01081 -0.9375,0.03125 -1.976952,0.127172 -3.929842,0.701353 -5.78125,1.71875 l 2.25,3.71875 c 2.79682,-1.536925 5.95318,-1.536926 8.75,0 l 2.25,-3.71875 c -2.082833,-1.144571 -4.308471,-1.73175 -6.53125,-1.75 z m -0.09375,7.75 c -2.880817,0 -5.25,2.226765 -5.25,4.968749 0,2.741982 2.369184,4.96875 5.25,4.96875 2.880817,0 5.21875,-2.22677 5.21875,-4.96875 0,-2.741982 -2.337933,-4.968748 -5.21875,-4.968749 z"
         style="fill:url(#linearGradient3820);fill-opacity:1;stroke:none" />
      <path
         inkscape:connector-curvature="0"
         inkscape:export-ydpi="1721.1351"
         inkscape:export-xdpi="1721.1351"
         inkscape:export-filename="C:\Documents and Settings\William\My Documents\Workspace\DroidPad\wifimask.png"
         id="rect3493-3-0"
         d="m -3.587054,-10.049107 0,54.0625 52.531251,0 0,-54.0625 -52.531251,0 z m 26.281251,9.84374972 c 5.237059,0 10.475454,1.37006798 15.375,4.06250018 l -2.625,4.3125 c -8.121773,-4.4631272 -17.378231,-4.4631302 -25.5000011,0 l -2.6249999,-4.3125 c 4.89955,-2.6924282 10.13794,-4.06250318 15.375001,-4.06250018 z m 0,8.78125018 c 3.673438,0 7.344555,0.955193 10.78125,2.8437501 l -2.3125,3.78125 c -5.404052,-2.969668 -11.533448,-2.969671 -16.937501,0 l -2.3125,-3.78125 c 3.4367,-1.8885541 7.107813,-2.8437531 10.781251,-2.8437501 z m 0.09375,7.9062501 c 2.222779,0.01825 4.448417,0.605429 6.53125,1.75 l -2.25,3.71875 c -2.79682,-1.536926 -5.95318,-1.536925 -8.750001,0 l -2.25,-3.71875 c 1.85141,-1.017397 3.804299,-1.591578 5.781251,-1.71875 0.317725,-0.02044 0.61996,-0.03386 0.9375,-0.03125 z m -0.09375,7.75 c 2.880817,1e-6 5.21875,2.226768 5.21875,4.96875 0,2.74198 -2.337933,4.96875 -5.21875,4.96875 -2.880816,0 -5.250001,-2.226768 -5.250001,-4.96875 0,-2.741984 2.369184,-4.96875 5.250001,-4.96875 z"
         style="opacity:0.2;fill:#000000;fill-opacity:1;fill-rule:nonzero;stroke:none;filter:url(#filter3844)" />
    </g>
  </g>
</svg>
